<?xml version="1.0" encoding="UTF-8"?>
<svg width="130px" height="45px" viewBox="0 0 130 45" version="1.1" xmlns="http://www.w3.org/2000/svg" xmlns:xlink="http://www.w3.org/1999/xlink">
    <!-- Generator: sketchtool 62 (101010) - https://sketch.com -->
    <title>BA944DE5-6AA4-4333-855A-AFCD13D7DDCD</title>
    <desc>Created with sketchtool.</desc>
    <g id="Landing" stroke="none" stroke-width="1" fill="none" fill-rule="evenodd">
        <g id="callout-a" transform="translate(-1194.000000, -3986.000000)">
            <g id="Footer" transform="translate(0.000000, 3986.000000)">
                <g id="FM-Multifamily-Logo---RGB" transform="translate(1194.000000, 0.000000)">
                    <polyline id="Fill-1" fill="#189BCB" points="0 11 11 11 11 13.7965867 3.03296564 13.7965867 3.03296564 18.7288909 10.5424385 18.7288909 10.5424385 21.4237302 3.03296564 21.4237302 3.03296564 29 0 29 0 11"></polyline>
                    <path d="M13,17.3402532 L15.8143165,17.3402532 L15.8143165,19.2836222 L15.8632939,19.2836222 C16.1896529,18.6031159 16.6464612,18.0530088 17.23419,17.6318987 C17.8214478,17.2107887 18.5066604,17 19.2898278,17 C19.4037944,17 19.5267088,17.0042064 19.6571582,17.0121519 C19.7880786,17.0205648 19.9020452,17.0406621 20,17.0729114 L20,19.744927 C19.8040904,19.6963194 19.636437,19.6640701 19.4979817,19.6477118 C19.3590554,19.6318208 19.2248385,19.6238754 19.0943891,19.6238754 C18.4251884,19.6238754 17.886908,19.744927 17.478606,19.9879649 C17.070775,20.2305355 16.752422,20.5221811 16.5244887,20.8624343 C16.2956136,21.2022201 16.1406755,21.5508861 16.0592034,21.9070302 C15.9772605,22.2631743 15.93676,22.5468744 15.93676,22.7571957 L15.93676,29 L13,29 L13,17.3402532" id="Fill-3" fill="#189BCB"></path>
                    <path d="M29.0369373,22.2717873 C29.0369373,21.8793698 28.9832535,21.5041851 28.8763609,21.145741 C28.7694683,20.7872969 28.6003405,20.4721812 28.3704026,20.1989168 C28.1395146,19.9261448 27.8478166,19.708518 27.4938834,19.5465288 C27.139475,19.3840473 26.7237816,19.3032989 26.2468031,19.3032989 C25.3579318,19.3032989 24.6049329,19.5805022 23.9878063,20.1349089 C23.3702047,20.6893156 23.0286235,21.4017725 22.9630627,22.2717873 L29.0369373,22.2717873 Z M32,23.6533727 C32,23.7902511 32,23.9266371 32,24.0630231 C32,24.1994092 31.9914486,24.3357952 31.9752959,24.4721812 L22.9630627,24.4721812 C22.9958431,24.915805 23.1070114,25.3215165 23.2965676,25.6878385 C23.4851736,26.0546529 23.73649,26.3707533 24.0495665,26.6346627 C24.3616929,26.8995569 24.7161012,27.1078287 25.1108912,27.2614476 C25.5061562,27.4155588 25.9170989,27.4918759 26.3456194,27.4918759 C27.0867414,27.4918759 27.7114692,27.351551 28.2221782,27.0694239 C28.7319371,26.7882816 29.1519063,26.4002954 29.4816105,25.9054653 L31.4565106,27.5430822 C30.2873431,29.1811915 28.5927392,30 26.3698484,30 C25.4481967,30 24.6006572,29.85032 23.8272299,29.5514525 C23.0533275,29.2535697 22.3825171,28.8311177 21.8147987,28.2850812 C21.2466052,27.7395372 20.8024071,27.0694239 20.4812542,26.2762186 C20.1605764,25.4835057 20,24.5834564 20,23.5765633 C20,22.5873954 20.1605764,21.6873461 20.4812542,20.8769079 C20.8024071,20.0669621 21.2428045,19.375677 21.8024467,18.8040374 C22.3620888,18.2328902 23.0248228,17.7892664 23.7901738,17.4736583 C24.5555248,17.1580502 25.3826359,17 26.2719823,17 C27.0948177,17 27.8554179,17.1408173 28.555208,17.422452 C29.2549982,17.7035943 29.8597728,18.1221073 30.3704818,18.676514 C30.8807158,19.2309207 31.2793064,19.9217134 31.5676788,20.7488922 C31.8555762,21.5765633 32,22.5445593 32,23.6533727 L32,23.6533727 Z" id="Fill-4" fill="#189BCB"></path>
                    <path d="M37.067731,23.5972412 C37.067731,24.0644799 37.1388486,24.5312375 37.2815675,24.997995 C37.4238026,25.4652338 37.6371553,25.8819472 37.9230769,26.2486166 C38.2075472,26.6152859 38.5679729,26.9150694 39.0038703,27.1489293 C39.4397678,27.3823081 39.9506531,27.4987569 40.5379777,27.4987569 C41.0909531,27.4987569 41.5853895,27.3861577 42.0212869,27.1609592 C42.4571843,26.9357607 42.8297049,26.640308 43.1403,26.2731574 C43.4499274,25.9069693 43.684567,25.4941054 43.8442187,25.0355281 C44.0033866,24.5769508 44.0827286,24.114524 44.0827286,23.6472853 C44.0827286,23.1810089 44.0033866,22.7137701 43.8442187,22.2470126 C43.684567,21.780255 43.4499274,21.3635416 43.1403,20.996391 C42.8297049,20.6297217 42.4571843,20.3299382 42.0212869,20.0960783 C41.5853895,19.8631807 41.0909531,19.7462507 40.5379777,19.7462507 C39.9506531,19.7462507 39.4397678,19.8588499 39.0038703,20.0835672 C38.5679729,20.3087657 38.2075472,20.6046997 37.9230769,20.971369 C37.6371553,21.3385195 37.4238026,21.7509022 37.2815675,22.2094795 C37.1388486,22.6680568 37.067731,23.1309648 37.067731,23.5972412 Z M47,29.6496912 L44.1330431,29.6496912 L44.1330431,27.8490657 L44.0827286,27.8490657 C43.6637639,28.549202 43.0812772,29.0828455 42.3357523,29.4495148 C41.5897436,29.8161841 40.7890663,30 39.934688,30 C39.0120948,30 38.1867441,29.8286952 37.4576681,29.4870479 C36.7281084,29.1454006 36.1083696,28.6868233 35.5970005,28.1117973 C35.0856313,27.53629 34.6918239,26.8611757 34.4150943,26.0859732 C34.1388486,25.3107707 34,24.4816746 34,23.5972412 C34,22.7137701 34.1427189,21.8885235 34.4281567,21.1215013 C34.712627,20.3549603 35.1151427,19.6875451 35.6342525,19.1206993 C36.1543299,18.5538536 36.7740687,18.1077873 37.495404,17.7829818 C38.2157716,17.4576951 39.0038703,17.2950517 39.8587325,17.2950517 C40.4121916,17.2950517 40.906628,17.3576069 41.3425254,17.4827171 C41.777939,17.6078274 42.1596517,17.7622905 42.4862119,17.9456252 C42.8132559,18.1289598 43.0938558,18.3291363 43.3284954,18.5456733 C43.563135,18.7626915 43.7566522,18.9710482 43.9071118,19.1707434 L43.9825835,19.1707434 L43.9825835,12 L47,12 L47,29.6496912 L47,29.6496912 Z" id="Fill-5" fill="#189BCB"></path>
                    <path d="M51.0678452,23.5972412 C51.0678452,24.0644799 51.1389654,24.5312375 51.2812058,24.997995 C51.4234462,25.4652338 51.6372907,25.8819472 51.9227391,26.2486166 C52.2072199,26.6152859 52.5681429,26.9150694 53.0040566,27.1489293 C53.4399702,27.3823081 53.9508746,27.4987569 54.5377373,27.4987569 C55.0907332,27.4987569 55.5851879,27.3861577 56.0211016,27.1609592 C56.4574991,26.9357607 56.8300335,26.640308 57.1401563,26.2731574 C57.4502791,25.9069693 57.6844436,25.4941054 57.844585,25.0355281 C58.003275,24.5769508 58.0831038,24.114524 58.0831038,23.6472853 C58.0831038,23.1810089 58.003275,22.7137701 57.844585,22.2470126 C57.6844436,21.780255 57.4502791,21.3635416 57.1401563,20.996391 C56.8300335,20.6297217 56.4574991,20.3299382 56.0211016,20.0960783 C55.5851879,19.8631807 55.0907332,19.7462507 54.5377373,19.7462507 C53.9508746,19.7462507 53.4399702,19.8588499 53.0040566,20.0835672 C52.5681429,20.3087657 52.2072199,20.6046997 51.9227391,20.971369 C51.6372907,21.3385195 51.4234462,21.7509022 51.2812058,22.2094795 C51.1389654,22.6680568 51.0678452,23.1309648 51.0678452,23.5972412 Z M61,29.6496912 L58.1329364,29.6496912 L58.1329364,27.8490657 L58.0831038,27.8490657 C57.6636397,28.549202 57.0816152,29.0828455 56.3355787,29.4495148 C55.5895422,29.8161841 54.7893189,30 53.934425,30 C53.0117975,30 52.1864161,29.8286952 51.4577968,29.4870479 C50.7282099,29.1454006 50.1084481,28.6868233 49.5965761,28.1117973 C49.0856718,27.53629 48.6918496,26.8611757 48.4151098,26.0859732 C48.1383699,25.3107707 48,24.4816746 48,23.5972412 C48,22.7137701 48.1422404,21.8885235 48.4276889,21.1215013 C48.7126535,20.3549603 49.1147004,19.6875451 49.6343134,19.1206993 C50.1539263,18.5538536 50.7741719,18.1077873 51.4950502,17.7829818 C52.2154447,17.4576951 53.0040566,17.2950517 53.8589505,17.2950517 C54.4124302,17.2950517 54.9064012,17.3576069 55.3423148,17.4827171 C55.7782285,17.6078274 56.1594715,17.7622905 56.4865277,17.9456252 C56.8131001,18.1289598 57.0937105,18.3291363 57.3288426,18.5456733 C57.5634909,18.7626915 57.7565314,18.9710482 57.9069967,19.1707434 L57.9824712,19.1707434 L57.9824712,12 L61,12 L61,29.6496912 L61,29.6496912 Z" id="Fill-6" fill="#189BCB"></path>
                    <path d="M63.4412794,29 L66.5582209,29 L66.5582209,16.9162025 L63.4412794,16.9162025 L63.4412794,29 Z M63,12.8130298 C63,12.3262291 63.185907,11.9023977 63.5587206,11.5415355 C63.9305347,11.1806733 64.4027986,11 64.974013,11 C65.5452274,11 66.0254873,11.1724388 66.4152924,11.5163478 C66.8050975,11.8602567 67,12.292807 67,12.8130298 C67,13.3332526 66.8050975,13.7653185 66.4152924,14.1092274 C66.0254873,14.4531364 65.5452274,14.6250908 64.974013,14.6250908 C64.4027986,14.6250908 63.9305347,14.4453863 63.5587206,14.0840397 C63.185907,13.7236619 63,13.2998305 63,12.8130298 L63,12.8130298 Z" id="Fill-7" fill="#189BCB"></path>
                    <path d="M78.0364623,22.2717873 C78.0364623,21.8793698 77.9832535,21.5041851 77.8763609,21.145741 C77.7689932,20.7872969 77.6003405,20.4721812 77.3704026,20.1989168 C77.1395146,19.9261448 76.8478166,19.708518 76.4934083,19.5465288 C76.139475,19.3840473 75.7237816,19.3032989 75.2468031,19.3032989 C74.3579318,19.3032989 73.6049329,19.5805022 72.9878063,20.1349089 C72.3706798,20.6893156 72.0286235,21.4017725 71.9625876,22.2717873 L78.0364623,22.2717873 Z M81,23.6533727 C81,23.7902511 81,23.9266371 81,24.0630231 C81,24.1994092 80.9914486,24.3357952 80.9748209,24.4721812 L71.9625876,24.4721812 C71.9958431,24.915805 72.1065363,25.3215165 72.2956174,25.6878385 C72.4851736,26.0546529 72.73649,26.3707533 73.0490914,26.6346627 C73.3616929,26.8995569 73.7161012,27.1078287 74.1108912,27.2614476 C74.5061562,27.4155588 74.9175739,27.4918759 75.3456194,27.4918759 C76.0862663,27.4918759 76.7114692,27.351551 77.2221782,27.0694239 C77.7324122,26.7882816 78.1519063,26.4002954 78.4816105,25.9054653 L80.4565106,27.5430822 C79.2873431,29.1811915 77.5922641,30 75.3703234,30 C74.4481967,30 73.6006572,29.85032 72.8272299,29.5514525 C72.0533275,29.2535697 71.3825171,28.8311177 70.8143236,28.2850812 C70.2470802,27.7395372 69.8024071,27.0694239 69.4812542,26.2762186 C69.1605764,25.4835057 69,24.5834564 69,23.5765633 C69,22.5873954 69.1605764,21.6873461 69.4812542,20.8769079 C69.8024071,20.0669621 70.2423295,19.375677 70.8024467,18.8040374 C71.3620888,18.2328902 72.0243478,17.7892664 72.7896987,17.4736583 C73.5555248,17.1580502 74.3826359,17 75.2710321,17 C76.0948177,17 76.8554179,17.1408173 77.555208,17.422452 C78.2549982,17.7035943 78.8597728,18.1221073 79.3700067,18.676514 C79.8802407,19.2309207 80.2793064,19.9217134 80.5676788,20.7488922 C80.8555762,21.5765633 81,22.5445593 81,23.6533727 L81,23.6533727 Z" id="Fill-8" fill="#189BCB"></path>
                    <polyline id="Fill-9" fill="#7FB641" points="85 11 89.8989347 11 94.4744 23.7878903 94.5495253 23.7878903 99.0757045 11 104 11 104 29 100.890674 29 100.890674 14.5337663 100.841388 14.5337663 95.4940942 29 93.3058906 29 88.0332435 14.5337663 87.9839575 14.5337663 87.9839575 29 85 29 85 11"></polyline>
                    <path d="M114.176114,24.065024 L113.50637,24.065024 C113.027301,24.065024 112.523921,24.0867747 111.995276,24.1292874 C111.466632,24.1722945 110.979936,24.2667123 110.533758,24.4120465 C110.08758,24.5578751 109.716242,24.7635181 109.419267,25.0284813 C109.121815,25.294433 108.973089,25.658263 108.973089,26.1204654 C108.973089,26.4121226 109.035058,26.6558293 109.158996,26.8530687 C109.282935,27.0498137 109.444054,27.2089893 109.641879,27.3281238 C109.84018,27.448247 110.063269,27.5337668 110.310669,27.5851776 C110.558546,27.6365883 110.805946,27.6622937 111.054299,27.6622937 C112.077743,27.6622937 112.854264,27.3795346 113.382909,26.8145106 C113.911553,26.2489923 114.176114,25.4788197 114.176114,24.5020154 L114.176114,24.065024 Z M114.225212,28.1244962 L114.151326,28.1244962 C113.853874,28.6732071 113.374328,29.1225568 112.713642,29.4735341 C112.052955,29.8245114 111.301699,30 110.459872,30 C109.980326,30 109.480759,29.9357366 108.960695,29.8072097 C108.440154,29.6791771 107.961085,29.4651304 107.523964,29.1655639 C107.08589,28.8655031 106.722179,28.4710244 106.433784,27.9831166 C106.144436,27.4952088 106,26.8916267 106,26.1718762 C106,25.246977 106.252167,24.5114077 106.755547,23.9626968 C107.259404,23.4144802 107.907696,22.9952848 108.700425,22.7036277 C109.493153,22.4129592 110.373115,22.2201688 111.33888,22.125751 C112.305122,22.0318275 113.25039,21.9843714 114.176114,21.9843714 L114.176114,21.6759069 C114.176114,20.9052399 113.906786,20.335767 113.370515,19.967488 C112.833767,19.5992091 112.193578,19.4153168 111.450901,19.4153168 C110.82263,19.4153168 110.220099,19.5522473 109.641879,19.8266028 C109.063659,20.1004639 108.58459,20.4346338 108.205148,20.8281238 L106.669267,18.95262 C107.345684,18.3020762 108.126495,17.813674 109.01027,17.4884022 C109.893569,17.1631303 110.789738,17 111.698301,17 C112.755114,17 113.626495,17.1542323 114.312446,17.4626968 C114.996967,17.770667 115.538005,18.1735493 115.935084,18.6698608 C116.33121,19.167161 116.607211,19.7232869 116.764517,20.340216 C116.921347,20.9566507 117,21.5730854 117,22.1900144 L117,29.6920298 L114.225212,29.6920298 L114.225212,28.1244962 L114.225212,28.1244962 Z" id="Fill-10" fill="#7FB641"></path>
                    <path d="M127.94052,20.7616937 C127.706159,20.4209749 127.354375,20.1349089 126.885653,19.9044806 C126.41693,19.6740522 125.93951,19.5593304 125.454358,19.5593304 C124.902038,19.5593304 124.41592,19.6740522 123.997452,19.9044806 C123.578984,20.1349089 123.23155,20.4382078 122.955632,20.8129 C122.678747,21.1885771 122.474345,21.6105367 122.340011,22.0797637 C122.206159,22.5489906 122.138991,23.0226489 122.138991,23.4997538 C122.138991,23.9778434 122.210508,24.4510094 122.352574,24.9202363 C122.495124,25.3894633 122.708224,25.8119153 122.993323,26.1866076 C123.277939,26.5622846 123.633588,26.8645987 124.060754,27.0950271 C124.487436,27.3254554 124.985635,27.4406696 125.554867,27.4406696 C126.023107,27.4406696 126.492312,27.3471196 126.961518,27.159035 C127.429274,26.9714426 127.806185,26.6986706 128.091768,26.3402265 L129.974873,28.2850812 C129.472325,28.8311177 128.832059,29.2535697 128.053593,29.5514525 C127.275127,29.85032 126.433843,30 125.52974,30 C124.642066,30 123.801265,29.8547514 123.005886,29.5647464 C122.210508,29.2747415 121.515156,28.8483506 120.921279,28.2850812 C120.32692,27.7223043 119.857714,27.0398818 119.515112,26.2378139 C119.171543,25.4362383 119,24.5238799 119,23.4997538 C119,22.5105859 119.171543,21.614968 119.515112,20.8129 C119.857714,20.0113245 120.322088,19.328902 120.908716,18.7661251 C121.494377,18.2028557 122.176682,17.7676022 122.955632,17.4608567 C123.733614,17.1536189 124.566684,17 125.454358,17 C126.341548,17 127.199745,17.1708518 128.028466,17.512063 C128.85767,17.8532742 129.514365,18.3225012 130,18.9192516 L127.94052,20.7616937" id="Fill-11" fill="#7FB641"></path>
                    <polyline id="Fill-12" fill="#7FB641" points="39 11 39 7.3681932 27.4997629 0 16 7.3681932 16 11 27.4997629 3.60005942 39 11"></polyline>
                    <polyline id="Fill-13" fill="#7FB641" points="36 5 36 0 33 0 33 2.71025071 36 5"></polyline>
                    <polyline id="Fill-14" fill="#70726B" points="23.9256966 45 23.9753305 38.6311351 23.9379822 38.6311351 21.6661261 45 20.1849722 45 17.9750356 38.6311351 17.9381788 38.6311351 17.9878127 45 16 45 16 36 19.0035874 36 20.9938572 41.7712936 21.0429997 41.7712936 22.9462873 36 26 36 26 45 23.9256966 45"></polyline>
                    <path d="M35.7521149,42.901774 C35.5863991,43.3354139 35.3499902,43.7064717 35.0428881,44.015933 C34.7348679,44.3253942 34.3639583,44.5668528 33.9297003,44.739816 C33.4954423,44.913272 33.0129845,45 32.4827858,45 C31.9443242,45 31.4604892,44.913272 31.0299036,44.739816 C30.5988589,44.5668528 30.233917,44.3253942 29.9337006,44.015933 C29.6339432,43.7064717 29.4035019,43.3354139 29.2419175,42.901774 C29.0807922,42.4686268 29,41.9871879 29,41.4594284 L29,36 L30.9601285,36 L30.9601285,41.2864652 C30.9601285,41.5254599 30.9890485,41.7526281 31.0468883,41.9669842 C31.1047282,42.1818331 31.1928651,42.3740145 31.3117581,42.5425427 C31.4311102,42.7120565 31.5890222,42.8460907 31.7850351,42.945138 C31.9810479,43.0441853 32.2174569,43.0939553 32.4942619,43.0939553 C32.7706079,43.0939553 33.0074759,43.0441853 33.2034888,42.945138 C33.3995016,42.8460907 33.5587907,42.7120565 33.6818152,42.5425427 C33.8048397,42.3740145 33.8934356,42.1818331 33.9471441,41.9669842 C34.0008525,41.7526281 34.0279363,41.5254599 34.0279363,41.2864652 L34.0279363,36 L36,36 L36,41.4594284 C36,41.9871879 35.9173716,42.4686268 35.7521149,42.901774" id="Fill-15" fill="#70726B"></path>
                    <polyline id="Fill-16" fill="#70726B" points="40 45 40 36 41.9281571 36 41.9281571 43.1055827 45 43.1055827 45 45 40 45"></polyline>
                    <polyline id="Fill-17" fill="#70726B" points="50.5484141 37.8559622 50.5484141 45 48.4520739 45 48.4520739 37.8559622 46 37.8559622 46 36 53 36 53 37.8559622 50.5484141 37.8559622"></polyline>
                    <polygon id="Fill-18" fill="#70726B" points="56 45 58 45 58 36 56 36"></polygon>
                    <polyline id="Fill-19" fill="#70726B" points="64.1763198 37.8559622 64.1763198 39.7119244 67.7042542 39.7119244 67.7042542 41.5041322 64.1763198 41.5041322 64.1763198 45 62 45 62 36 68 36 68 37.8559622 64.1763198 37.8559622"></polyline>
                    <path d="M73.4824903,38.4024287 L72.4120307,41.4919885 L74.5283416,41.4919885 L73.4824903,38.4024287 Z M75.7407719,45 L75.0872331,43.2330916 L71.8299506,43.2330916 L71.2114313,45 L69,45 L72.5308129,36 L74.5046798,36 L78,45 L75.7407719,45 L75.7407719,45 Z" id="Fill-20" fill="#70726B"></path>
                    <polyline id="Fill-21" fill="#70726B" points="87.9260861 45 87.975231 38.6311351 87.9383723 38.6311351 85.6664046 45 84.1846865 45 81.9746412 38.6311351 81.9377826 38.6311351 81.9874189 45 80 45 80 36 83.0032436 36 84.9936112 41.7712936 85.042756 41.7712936 86.9461372 36 90 36 90 45 87.9260861 45"></polyline>
                    <polygon id="Fill-22" fill="#70726B" points="94 45 96 45 96 36 94 36"></polygon>
                    <polyline id="Fill-23" fill="#70726B" points="100 45 100 36 101.928157 36 101.928157 43.1055827 105 43.1055827 105 45 100 45"></polyline>
                    <polyline id="Fill-24" fill="#70726B" points="110.54744 41.1863721 110.54744 45 108.376768 45 108.376768 41.1863721 105 36 107.627947 36 109.544464 39.3304098 111.461487 36 114 36 110.54744 41.1863721"></polyline>
                </g>
            </g>
        </g>
    </g>
</svg>