<svg xmlns="http://www.w3.org/2000/svg" width="94" height="94" viewBox="0 0 94 94" version="1.1">
  <title>
    5C80D714-4415-4768-B2E5-A2D1EE36BBD5
  </title>
  <desc>
    Created with sketchtool.
  </desc>
  <defs>
    <filter x="-12.5" y="-47.7" width="125.4" height="195.3" filterUnits="objectBoundingBox" id="filter-1">
      <feOffset dx="0" dy="0" in="SourceAlpha" result="shadowOffsetOuter1"/>
      <feGaussianBlur stdDeviation="7.5" in="shadowOffsetOuter1" result="shadowBlurOuter1"/>
      <feColorMatrix values="0" type="matrix" in="shadowBlurOuter1" result="shadowMatrixOuter1"/>
      <feMerge>
        <feMergeNode in="shadowMatrixOuter1"/>
        <feMergeNode in="SourceGraphic"/>
      </feMerge>
    </filter>
  </defs>
  <g id="Landing" stroke="none" stroke-width="1" fill="none" fill-rule="evenodd">
    <g id="callout-a" transform="translate(-759.000000, -2333.000000)">
      <g id="Section-3" transform="translate(0.000000, 2027.000000)">
        <g id="CTA-View-Gallery" filter="url(#filter-1)" transform="translate(602.000000, 321.000000)">
          <g id="icon_camera_circle" transform="translate(172.000000, 0.000000)">
            <path d="M36.71 27.29C39.32 29.89 39.32 34.11 36.71 36.71 34.11 39.32 29.89 39.32 27.29 36.71 24.68 34.11 24.68 29.89 27.29 27.29 29.89 24.68 34.11 24.68 36.71 27.29" id="Path" stroke="#FFFFFF" stroke-width="3" stroke-linejoin="round"/>
            <path d="M48 22.67L41.33 22.67 36 17.33 28 17.33 22.67 22.67 16 22.67C13.8 22.67 12 24.47 12 26.67L12 40C12 42.2 13.8 44 16 44L48 44C50.2 44 52 42.2 52 40L52 26.67C52 24.47 50.2 22.67 48 22.67Z" id="Path" stroke="#FFFFFF" stroke-width="3" stroke-linecap="round" stroke-linejoin="round"/>
            <path d="M46.67 26.67C45.93 26.67 45.33 27.26 45.33 28 45.33 28.74 45.93 29.33 46.67 29.33 47.4 29.33 48 28.74 48 28 48 27.26 47.4 26.67 46.67 26.67L46.67 26.67Z" id="Path" fill="#000000" fill-rule="nonzero"/>
            <path d="M53.68 10.32C65.66 22.29 65.66 41.71 53.68 53.68 41.71 65.66 22.29 65.66 10.32 53.68 -1.66 41.71-1.66 22.29 10.32 10.32 22.29-1.66 41.71-1.66 53.68 10.32" id="Path" stroke="#FFFFFF" stroke-width="3" stroke-linejoin="round"/>
            <polygon id="Path" points="0 0 64 0 64 64 0 64"/>
          </g>
        </g>
      </g>
    </g>
  </g>
</svg>