<svg version="1.1" id="Layer_1" xmlns="http://www.w3.org/2000/svg" x="0" y="0" viewBox="0 0 138 47.79" xml:space="preserve"><style>.st0{fill:#fff}</style><path id="XMLID_25_" class="st0" d="M0 12.07h12.23v2.94H3.37v5.19h8.35v2.84H3.37v7.97H0V12.07z"/><path id="XMLID_23_" class="st0" d="M13.57 18.17h3.08v2.14h.05c.36-.75.86-1.36 1.5-1.82.64-.46 1.39-.7 2.25-.7.12 0 .26 0 .4.01s.27.03.37.07v2.94a5.9 5.9 0 00-.55-.11c-.15-.02-.3-.03-.44-.03-.73 0-1.32.13-1.77.4-.45.27-.79.59-1.04.96s-.42.76-.51 1.15c-.09.39-.13.7-.13.94V31h-3.21V18.17z"/><path id="XMLID_20_" class="st0" d="M34.36 24.75v.43c0 .14-.01.29-.03.43h-9.77c.04.46.16.89.36 1.27.2.38.48.71.82.99.34.28.72.49 1.15.66.43.16.87.24 1.34.24.8 0 1.48-.15 2.03-.44.55-.29 1.01-.7 1.36-1.22l2.14 1.71c-1.27 1.71-3.1 2.57-5.51 2.57-1 0-1.92-.16-2.76-.47a6.4 6.4 0 01-2.18-1.32c-.62-.57-1.1-1.27-1.44-2.1-.35-.83-.52-1.77-.52-2.82 0-1.03.17-1.98.52-2.82.35-.85.82-1.57 1.43-2.17.61-.6 1.32-1.06 2.15-1.39.83-.33 1.73-.49 2.69-.49.89 0 1.72.15 2.47.44.76.29 1.41.73 1.97 1.31.55.58.99 1.3 1.3 2.17.32.85.48 1.86.48 3.02zm-3.21-1.44c0-.41-.06-.8-.17-1.18-.12-.37-.3-.7-.55-.99-.25-.29-.57-.51-.95-.68-.38-.17-.83-.25-1.35-.25-.96 0-1.78.29-2.45.87-.67.58-1.04 1.32-1.11 2.23h6.58z"/><path id="XMLID_17_" class="st0" d="M49.58 31.01h-3.05v-1.93h-.05a4.39 4.39 0 01-1.86 1.71c-.79.39-1.65.59-2.56.59-.98 0-1.86-.18-2.64-.55-.78-.37-1.44-.86-1.98-1.47-.54-.62-.96-1.34-1.26-2.17-.29-.83-.44-1.72-.44-2.66 0-.95.15-1.83.46-2.65.3-.82.73-1.53 1.28-2.14.55-.61 1.21-1.08 1.98-1.43.77-.35 1.61-.52 2.52-.52.59 0 1.11.07 1.58.2.46.13.87.3 1.22.5a4.94 4.94 0 011.52 1.31h.08v-7.67h3.21v18.88zm-10.57-6.47c0 .5.08 1 .23 1.5.15.5.38.95.68 1.34.3.39.69.71 1.15.96.46.25 1.01.37 1.63.37.59 0 1.11-.12 1.58-.36.46-.24.86-.56 1.19-.95.33-.39.58-.83.75-1.32.17-.49.25-.99.25-1.49s-.08-1-.25-1.5c-.17-.5-.42-.95-.75-1.34-.33-.39-.73-.71-1.19-.96-.46-.25-.99-.37-1.58-.37-.62 0-1.17.12-1.63.36-.46.24-.85.56-1.15.95-.3.39-.53.83-.68 1.32-.15.49-.23.99-.23 1.49z"/><path id="XMLID_14_" class="st0" d="M64.94 31.01h-3.05v-1.93h-.05a4.39 4.39 0 01-1.86 1.71c-.79.39-1.65.59-2.56.59-.98 0-1.86-.18-2.64-.55-.78-.37-1.44-.86-1.98-1.47-.54-.62-.96-1.34-1.26-2.17-.29-.83-.44-1.72-.44-2.66 0-.95.15-1.83.46-2.65.3-.82.73-1.53 1.28-2.14.55-.61 1.21-1.08 1.98-1.43.77-.35 1.61-.52 2.52-.52.59 0 1.11.07 1.58.2.46.13.87.3 1.22.5a4.94 4.94 0 011.52 1.31h.08v-7.67h3.21v18.88zm-10.57-6.47c0 .5.08 1 .23 1.5.15.5.38.95.68 1.34.3.39.69.71 1.15.96.46.25 1.01.37 1.63.37.59 0 1.11-.12 1.58-.36.46-.24.86-.56 1.19-.95.33-.39.58-.83.75-1.32.17-.49.25-.99.25-1.49s-.08-1-.25-1.5c-.17-.5-.42-.95-.75-1.34-.33-.39-.73-.71-1.19-.96-.46-.25-.99-.37-1.58-.37-.62 0-1.17.12-1.63.36-.46.24-.85.56-1.15.95-.3.39-.53.83-.68 1.32-.16.49-.23.99-.23 1.49z"/><path id="XMLID_11_" class="st0" d="M67.26 13.81c0-.52.19-.97.58-1.35.38-.38.87-.58 1.46-.58s1.08.18 1.48.55c.4.37.6.83.6 1.38 0 .55-.2 1.01-.6 1.38-.4.37-.9.55-1.48.55s-1.08-.19-1.46-.58c-.39-.38-.58-.83-.58-1.35zm.45 4.36h3.21v12.84h-3.21V18.17z"/><path id="XMLID_8_" class="st0" d="M85.9 24.75v.43c0 .14-.01.29-.03.43H76.1c.04.46.16.89.36 1.27.21.38.48.71.82.99.34.28.72.49 1.15.66.43.16.87.24 1.34.24.8 0 1.48-.15 2.03-.44.55-.29 1.01-.7 1.36-1.22l2.14 1.71c-1.27 1.71-3.1 2.57-5.51 2.57-1 0-1.92-.16-2.76-.47a6.4 6.4 0 01-2.18-1.32c-.62-.57-1.1-1.27-1.44-2.1-.35-.83-.52-1.77-.52-2.82 0-1.03.17-1.98.52-2.82.35-.85.82-1.57 1.43-2.17.61-.6 1.32-1.06 2.15-1.39.83-.33 1.73-.49 2.69-.49.89 0 1.72.15 2.47.44.76.29 1.41.73 1.97 1.31.55.58.99 1.3 1.3 2.17.32.85.48 1.86.48 3.02zm-3.22-1.44c0-.41-.06-.8-.17-1.18-.12-.37-.3-.7-.55-.99-.25-.29-.57-.51-.95-.68-.38-.17-.83-.25-1.35-.25-.96 0-1.78.29-2.45.87-.67.58-1.04 1.32-1.11 2.23h6.58z"/><g><path id="XMLID_6_" class="st0" d="M90.23 12.07h5.27l4.92 13.46h.08l4.87-13.46h5.3v18.94h-3.34V15.79h-.05l-5.75 15.22h-2.35L93.5 15.79h-.05v15.22h-3.21V12.07z"/><path id="XMLID_3_" class="st0" d="M121.47 29.38h-.08c-.32.57-.84 1.04-1.55 1.4-.71.37-1.52.55-2.43.55-.52 0-1.06-.07-1.62-.2s-1.08-.36-1.55-.67a3.86 3.86 0 01-1.18-1.23c-.31-.51-.47-1.14-.47-1.89 0-.96.27-1.73.82-2.3.54-.57 1.24-1.01 2.1-1.31.86-.3 1.81-.5 2.85-.6 1.04-.1 2.06-.15 3.06-.15v-.32c0-.8-.29-1.4-.87-1.78-.58-.38-1.27-.58-2.07-.58-.68 0-1.33.14-1.95.43-.62.29-1.14.63-1.55 1.04l-1.66-1.95c.73-.68 1.57-1.19 2.53-1.53.95-.34 1.92-.51 2.9-.51 1.14 0 2.08.16 2.82.48.74.32 1.32.74 1.75 1.26.43.52.73 1.1.9 1.74.17.64.25 1.28.25 1.93V31h-3v-1.62zm-.05-4.23h-.72c-.52 0-1.06.02-1.63.07-.57.04-1.1.14-1.58.29-.48.15-.88.37-1.2.64-.32.28-.48.66-.48 1.14 0 .3.07.56.2.76.13.21.31.37.52.49.21.12.45.21.72.27s.54.08.8.08c1.11 0 1.94-.29 2.51-.88.57-.59.86-1.39.86-2.41v-.45z"/><path id="XMLID_1_" class="st0" d="M135.81 21.73c-.25-.36-.62-.66-1.12-.9-.5-.24-1.01-.36-1.52-.36-.59 0-1.11.12-1.55.36-.45.24-.82.56-1.11.95-.29.39-.51.83-.66 1.32a5.138 5.138 0 00.02 2.98c.15.49.38.93.68 1.32.3.39.68.71 1.14.95.45.24.99.36 1.59.36.5 0 1-.1 1.5-.29.5-.2.9-.48 1.2-.86l2.01 2.03c-.54.57-1.22 1.01-2.05 1.32-.83.31-1.73.47-2.69.47-.95 0-1.84-.15-2.69-.45a6.26 6.26 0 01-2.22-1.34c-.63-.59-1.13-1.3-1.5-2.14-.37-.84-.55-1.79-.55-2.86 0-1.03.18-1.97.55-2.81a6.428 6.428 0 013.67-3.5c.83-.32 1.72-.48 2.66-.48.95 0 1.86.18 2.74.54.88.36 1.58.85 2.1 1.47l-2.2 1.92z"/></g><g><path class="st0" d="M41.8 12.13V8.12L29.31 0 16.83 8.12v4.01l12.48-8.16zM38.37 4.87V0h-3.42v2.64z"/></g><g><path class="st0" d="M25.13 47.55l.05-6.48h-.04l-2.38 6.48h-1.55l-2.32-6.48h-.04l.05 6.48h-2.08v-9.16h3.15l2.08 5.87h.05l1.99-5.87h3.2v9.16h-2.16zM38.61 45.6c-.19.45-.45.84-.8 1.16-.35.32-.76.58-1.25.76-.49.18-1.03.27-1.62.27-.6 0-1.15-.09-1.63-.27a3.5 3.5 0 01-1.23-.76c-.34-.32-.59-.71-.78-1.16-.18-.45-.27-.95-.27-1.51v-5.7h2.2v5.52c0 .25.03.49.1.71.06.22.16.42.3.6.13.18.31.32.53.42.22.1.49.16.8.16.31 0 .58-.05.8-.16.22-.1.4-.24.54-.42s.24-.38.3-.6c.06-.22.09-.46.09-.71v-5.52h2.21v5.7c-.01.56-.11 1.06-.29 1.51zM42.62 47.55v-9.16h2.22v7.23h3.54v1.93h-5.76zM54.27 40.28v7.27h-2.21v-7.27h-2.59v-1.89h7.39v1.89h-2.59zM60 47.55v-9.16h2.22v9.16H60zM68.25 40.28v1.89h3.54v1.82h-3.54v3.56h-2.19v-9.16h6.03v1.89h-3.84zM80.97 47.55l-.71-1.8h-3.54l-.67 1.8h-2.41l3.84-9.16h2.15l3.8 9.16h-2.46zm-2.46-6.71l-1.16 3.14h2.3l-1.14-3.14zM93.79 47.55l.05-6.48h-.04l-2.38 6.48h-1.55l-2.32-6.48h-.04l.05 6.48h-2.08v-9.16h3.15l2.08 5.87h.05l1.99-5.87h3.2v9.16h-2.16zM99.79 47.55v-9.16h2.22v9.16h-2.22zM105.85 47.55v-9.16h2.22v7.23h3.54v1.93h-5.76zM117.74 43.67v3.88h-2.21v-3.88l-3.44-5.28h2.68l1.95 3.39 1.95-3.39h2.59l-3.52 5.28z"/></g></svg>