
<svg x="0px" y="0px" width="24px" height="24px" viewBox="0 0 24 24" enable-background="new 0 0 24 24">
	<g>
		<path fill="#FFFFFF" d="M17.454,7.138h-7.272c-0.502,0-0.909-0.435-0.909-0.973s0.407-0.973,0.909-0.973h7.272
				c0.503,0,0.909,0.435,0.909,0.973S17.957,7.138,17.454,7.138L17.454,7.138z"/>
	</g>
	<g>
		<path fill="#FFFFFF" d="M17.454,11.028H6.546c-0.502,0-0.909-0.435-0.909-0.973c0-0.538,0.407-0.973,0.909-0.973h10.908
				c0.503,0,0.909,0.435,0.909,0.973C18.363,10.593,17.957,11.028,17.454,11.028L17.454,11.028z"/>
	</g>
	<g>
		<path fill="#FFFFFF" d="M17.454,14.918H6.546c-0.502,0-0.909-0.436-0.909-0.973c0-0.538,0.407-0.973,0.909-0.973h10.908
				c0.503,0,0.909,0.435,0.909,0.973C18.363,14.482,17.957,14.918,17.454,14.918L17.454,14.918z"/>
	</g>
	<g>
		<path fill="#FFFFFF" d="M17.454,18.809H6.546c-0.502,0-0.909-0.436-0.909-0.974c0-0.537,0.407-0.974,0.909-0.974h10.908
				c0.503,0,0.909,0.437,0.909,0.974C18.363,18.373,17.957,18.809,17.454,18.809L17.454,18.809z"/>
	</g>
	<g>
		<path fill="#FFFFFF" d="M21.091,22.698H2.91c-0.503,0-0.91-0.437-0.91-0.974V2.275c0-0.538,0.407-0.973,0.91-0.973h18.181
				C21.593,1.302,22,1.737,22,2.275v19.452C22,22.264,21.593,22.698,21.091,22.698L21.091,22.698z M3.819,20.753h16.363V3.248H3.819
				V20.753L3.819,20.753z"/>
	</g>
</svg>
