<svg viewBox="0 0 244.84 291.73">
  <defs>
    <style>.cls-1{fill:#fff;}</style>
      </defs>
        <path class="cls-1" d="M154.33,30,124.89.31a3,3,0,0,0-2.38-1.19h-.05a3,3,0,0,0-2.12.88L90.39,29.95a3,3,0,1,0,4.24,4.24L119.51,9.31V253.6a18.75,18.75,0,1,0,6,0V9.45l24.56,24.73A3,3,0,1,0,154.33,30ZM135.27,272.1a12.76,12.76,0,1,1-12.75-12.75A12.77,12.77,0,0,1,135.27,272.1Z" transform="translate(0 0.88)"/>
          <path class="cls-1" d="M92,242.76a1,1,0,0,1-1-1V212.25H61.84a1,1,0,0,1-1-1V181.1a1,1,0,0,1,1-1H91V151.76H61.84a1,1,0,1,1,0-2H92a1,1,0,0,1,1,1V181.1a1,1,0,0,1-1,1H62.84v28.16H92a1,1,0,0,1,1,1v30.51A1,1,0,0,1,92,242.76Z" transform="translate(0 0.88)"/>
            <path class="cls-1" d="M243.84,28.25H183a1,1,0,0,0-1,1V59.59a1,1,0,1,0,2,0V30.25h58.84V58.76H213a1,1,0,0,0-1,1V89.1H183a1,1,0,0,0-1,1v29.16H153.2V59.76a1,1,0,0,0-2,0v60.49a1,1,0,0,0,1,1H183a1,1,0,0,0,1-1V91.1h29a1,1,0,0,0,1-1V60.76h28.84v58H213a1,1,0,0,0-1,1v30H152.84a1,1,0,0,0-1,1V181.1a1,1,0,0,0,2,0V151.76H213a1,1,0,0,0,1-1v-30h28.84V180H182.6a1,1,0,0,0-1,1v29.25H152.84a1,1,0,0,0-1,1v30.33a1,1,0,0,0,2,0V212.25H182.6a1,1,0,0,0,1-1V182h59.25V271.1H184V242.59h29.51a1,1,0,0,0,1-1V211.25a1,1,0,0,0-2,0v29.33H183a1,1,0,0,0-1,1V272.1a1,1,0,0,0,1,1h60.84a1,1,0,0,0,1-1V29.25A1,1,0,0,0,243.84,28.25Z" transform="translate(0 0.88)"/>
              <path class="cls-1" d="M92,89.1H61.84a1,1,0,0,0-1,1v29.16H31.33a1,1,0,0,0-1,1V180.1H2V91H31.33a1,1,0,0,0,0-2H2V30.25H60.84V58.76H31.33a1,1,0,1,0,0,2H61.84a1,1,0,0,0,1-1V29.25a1,1,0,0,0-1-1H1a1,1,0,0,0-1,1V272.1a1,1,0,0,0,1,1H61.67a1,1,0,0,0,1-1V241.76a1,1,0,0,0-1-1H32.33V211.25a1,1,0,1,0-2,0v30.51a1,1,0,0,0,1,1H60.67V271.1H2v-89H31.33a1,1,0,0,0,1-1V121.25H61.84a1,1,0,0,0,1-1V91.1H91v29.16a1,1,0,0,0,2,0V90.1A1,1,0,0,0,92,89.1Z" transform="translate(0 0.88)"/>
</svg>