<?xml version="1.0" encoding="utf-8"?>
<!-- Generator: Adobe Illustrator 14.0.0, SVG Export Plug-In . SVG Version: 6.00 Build 43363)  -->
<!DOCTYPE svg PUBLIC "-//W3C//DTD SVG 1.1//EN" "http://www.w3.org/Graphics/SVG/1.1/DTD/svg11.dtd">
<svg version="1.1" id="Layer_1" xmlns="http://www.w3.org/2000/svg" xmlns:xlink="http://www.w3.org/1999/xlink" x="0px" y="0px"
	 width="24px" height="24px" viewBox="0 0 24 24" enable-background="new 0 0 24 24" xml:space="preserve">
<g id="Outline_Icons_1_">
	<g id="Outline_Icons">
	</g>
	<g id="New_icons_1_">
		<g>
			<g>
				<g>
					<path d="M12.042,22.443C6.284,22.443,1.599,17.758,1.599,12c0-5.759,4.685-10.444,10.444-10.444
						C17.8,1.556,22.486,6.241,22.486,12C22.486,17.758,17.8,22.443,12.042,22.443L12.042,22.443z M12.042,3.455
						c-4.712,0-8.545,3.833-8.545,8.545c0,4.712,3.833,8.545,8.545,8.545c4.712,0,8.545-3.833,8.545-8.545
						C20.588,7.288,16.755,3.455,12.042,3.455L12.042,3.455z"/>
				</g>
				<g>
					<path d="M15.84,14.848h-3.797c-0.525,0-0.95-0.424-0.95-0.949V7.252c0-0.525,0.425-0.949,0.95-0.949s0.95,0.424,0.95,0.949
						v5.697h2.848c0.525,0,0.95,0.425,0.95,0.949C16.79,14.424,16.365,14.848,15.84,14.848L15.84,14.848z"/>
				</g>
			</g>
		</g>
	</g>
</g>
<g id="Invisible_Shape">
	<rect fill="none" width="24" height="24"/>
</g>
</svg>
