
<svg id="Layer_1" xmlns="http://www.w3.org/2000/svg" x="0px" y="0px"
	 width="612px" height="792px" viewBox="0 0 612 792">
				<g>
					<path fill="#FFFFFF" d="M112.2,600c-2.55,0-5.1,0-7.65-2.55C51,543.9,20.4,472.5,20.4,396c0-158.1,127.5-285.6,285.6-285.6
						c158.1,0,285.6,127.5,285.6,285.6c0,76.5-28.05,145.35-81.6,201.45c-5.1,5.1-10.2,5.1-15.3,2.55
						c-22.95-15.3-63.75-30.6-104.55-45.9c-12.75-5.1-25.5-10.199-38.25-15.3c-5.101-2.55-7.65-5.1-7.65-10.2V469.95
						c0-5.101,2.55-10.2,7.65-10.2c0,0,28.05-10.2,28.05-61.2c0-7.65,5.1-12.75,12.75-12.75c0,0,2.55-5.1,2.55-12.75
						c0-7.65-2.55-10.2-2.55-12.75c-7.65,0-10.2-5.1-10.2-12.75c0-2.55,0-7.65,2.55-12.75c0-15.3,10.2-45.9,5.101-66.3
						C385.05,253.2,359.55,243,323.85,243c-35.7,0-61.2,10.2-66.3,25.5c-2.55,5.1-7.65,10.2-12.75,7.65
						c-10.2-2.55-15.3,0-17.85,2.55c-7.65,10.2,2.55,43.35,5.1,56.1c2.55,7.65,2.55,10.2,2.55,12.75c0,7.65-5.1,12.75-12.75,12.75
						c0,0-2.55,5.1-2.55,12.75c0,7.65,2.55,10.2,2.55,12.75c7.65,0,12.75,5.1,12.75,12.75c0,48.45,25.5,58.65,28.05,61.2
						c5.1,2.55,7.65,5.1,7.65,10.2V528.6c0,5.101-2.55,10.2-7.65,10.2c-12.75,5.101-22.95,7.65-35.7,12.75
						c-40.8,15.3-84.15,30.601-107.1,45.9C117.3,600,114.75,600,112.2,600L112.2,600z M306,133.35
						c-145.35,0-262.65,117.3-262.65,262.65c0,66.3,25.5,127.5,68.85,175.95c25.5-15.3,66.3-30.601,104.55-43.351
						c10.2-2.55,17.85-7.649,28.05-10.199V475.05c-12.75-7.649-33.15-25.5-35.7-68.85c-10.2-5.101-15.3-17.85-15.3-33.15
						c0-12.75,5.1-25.5,12.75-30.6c-5.1-20.4-15.3-56.1,0-76.5c5.1-5.1,12.75-12.75,30.6-12.75c12.75-25.5,53.55-35.7,84.15-35.7
						c35.7,0,81.601,12.75,89.25,45.9c7.65,28.05-2.55,61.2-10.2,79.05c7.65,5.1,12.75,17.85,12.75,30.6
						c0,15.3-5.1,28.05-15.3,33.15c-2.55,43.35-22.95,61.2-35.7,68.85V518.4c10.2,5.1,20.4,7.649,30.601,10.199
						c40.8,15.301,79.05,28.051,102,43.351C538.05,523.5,563.55,462.3,563.55,396C568.65,250.65,451.35,133.35,306,133.35
						L306,133.35z"/>
				</g>
				<g>
					<path fill="#FFFFFF" d="M306,681.6c-76.5,0-147.9-30.6-204-84.149l17.85-17.851c48.45,51,114.75,76.5,186.15,76.5
						c71.4,0,137.7-28.05,186.15-79.05L510,594.9C453.9,651,382.5,681.6,306,681.6L306,681.6z"/>
				</g>
				<g>
					<path fill="#FFFFFF" d="M112.2,600c-2.55,0-5.1,0-7.65-2.55C51,543.9,20.4,472.5,20.4,396c0-158.1,127.5-285.6,285.6-285.6
						c158.1,0,285.6,127.5,285.6,285.6c0,76.5-28.05,145.35-81.6,201.45c-5.1,5.1-10.2,5.1-15.3,2.55
						c-22.95-15.3-63.75-30.6-104.55-45.9c-12.75-5.1-25.5-10.199-38.25-15.3c-5.101-2.55-7.65-5.1-7.65-10.2V469.95
						c0-5.101,2.55-10.2,7.65-10.2c0,0,28.05-10.2,28.05-61.2c0-7.65,5.1-12.75,12.75-12.75c0,0,2.55-5.1,2.55-12.75
						c0-7.65-2.55-10.2-2.55-12.75c-7.65,0-10.2-5.1-10.2-12.75c0-2.55,0-7.65,2.55-12.75c0-15.3,10.2-45.9,5.101-66.3
						C385.05,253.2,359.55,243,323.85,243c-35.7,0-61.2,10.2-66.3,25.5c-2.55,5.1-7.65,10.2-12.75,7.65
						c-10.2-2.55-15.3,0-17.85,2.55c-7.65,10.2,2.55,43.35,5.1,56.1c2.55,7.65,2.55,10.2,2.55,12.75c0,7.65-5.1,12.75-12.75,12.75
						c0,0-2.55,5.1-2.55,12.75c0,7.65,2.55,10.2,2.55,12.75c7.65,0,12.75,5.1,12.75,12.75c0,48.45,25.5,58.65,28.05,61.2
						c5.1,2.55,7.65,5.1,7.65,10.2V528.6c0,5.101-2.55,10.2-7.65,10.2c-12.75,5.101-22.95,7.65-35.7,12.75
						c-40.8,15.3-84.15,30.601-107.1,45.9C117.3,600,114.75,600,112.2,600L112.2,600z M306,133.35
						c-145.35,0-262.65,117.3-262.65,262.65c0,66.3,25.5,127.5,68.85,175.95c25.5-15.3,66.3-30.601,104.55-43.351
						c10.2-2.55,17.85-7.649,28.05-10.199V475.05c-12.75-7.649-33.15-25.5-35.7-68.85c-10.2-5.101-15.3-17.85-15.3-33.15
						c0-12.75,5.1-25.5,12.75-30.6c-5.1-20.4-15.3-56.1,0-76.5c5.1-5.1,12.75-12.75,30.6-12.75c12.75-25.5,53.55-35.7,84.15-35.7
						c35.7,0,81.601,12.75,89.25,45.9c7.65,28.05-2.55,61.2-10.2,79.05c7.65,5.1,12.75,17.85,12.75,30.6
						c0,15.3-5.1,28.05-15.3,33.15c-2.55,43.35-22.95,61.2-35.7,68.85V518.4c10.2,5.1,20.4,7.649,30.601,10.199
						c40.8,15.301,79.05,28.051,102,43.351C538.05,523.5,563.55,462.3,563.55,396C568.65,250.65,451.35,133.35,306,133.35
						L306,133.35z"/>
				</g>
				<g>
					<path fill="#FFFFFF" d="M306,681.6c-76.5,0-147.9-30.6-204-84.149l17.85-17.851c48.45,51,114.75,76.5,186.15,76.5
						c71.4,0,137.7-28.05,186.15-79.05L510,594.9C453.9,651,382.5,681.6,306,681.6L306,681.6z"/>
				</g>
</svg>
