<?xml version="1.0" encoding="UTF-8"?>
<svg width="56px" height="57px" viewBox="0 0 56 57" version="1.1" xmlns="http://www.w3.org/2000/svg" xmlns:xlink="http://www.w3.org/1999/xlink">
    <!-- Generator: Sketch 49.3 (51167) - http://www.bohemiancoding.com/sketch -->
    <title>icon_business-shield</title>
    <desc>Created with Sketch.</desc>
    <defs></defs>
    <g id="Landing" stroke="none" stroke-width="1" fill="none" fill-rule="evenodd" stroke-linecap="square">
        <g id="Social-Impact-Investing-v3" transform="translate(-1143.000000, -3350.000000)">
            <g id="Products" transform="translate(0.000000, 2991.000000)">
                <g id="Box-4" transform="translate(1030.000000, 336.000000)">
                    <g id="icon_business-shield" transform="translate(113.000000, 24.000000)">
                        <g id="Outline_Icons_1_" transform="translate(2.291667, 0.000000)" stroke="#88BD45" stroke-linejoin="round" stroke-width="3">
                            <g id="Outline_Icons">
                                <g id="Group">
                                    <circle id="Oval" cx="12.6041667" cy="9.16666667" r="8.02083333"></circle>
                                    <path d="M25.2083333,21.7708333 L0,21.7708333 C0,31.095625 3.75833333,36.53375 8.02083333,38.9583333 L8.02083333,53.8541667 L17.1875,53.8541667 L17.1875,38.9583333 C21.4454167,36.53375 25.2083333,31.095625 25.2083333,21.7708333 Z" id="Shape"></path>
                                    <polygon id="Shape" points="13.75 21.7708333 11.4583333 21.7708333 10.3125 35.5208333 12.6041667 37.8125 14.8958333 35.5208333"></polygon>
                                    <path d="M25.0685417,39.730625 C27.2777083,41.3577083 29.9635417,42.7922917 33.2291667,44 C50.6458333,37.55125 51.5625,24.7179167 51.5625,10.1222917 C51.5625,10.1222917 37.8125,6.41208333 33.2429167,1.835625 L33.213125,1.835625 C31.6685417,3.3825 29.0789583,4.82854167 26.324375,6.06833333" id="Shape" stroke-linecap="round"></path>
                                    <polyline id="Shape" stroke-linecap="round" points="30.9375 19.4791667 30.9375 12.6041667 35.5208333 12.6041667 35.5208333 19.4791667 42.3958333 19.4791667 42.3958333 24.0625 35.5208333 24.0625 35.5208333 30.9375 30.9375 30.9375 30.9375 25.2083333"></polyline>
                                </g>
                            </g>
                        </g>
                        <g id="Invisible_Shape">
                            <rect id="Rectangle-path" x="0" y="0" width="55" height="55"></rect>
                        </g>
                    </g>
                </g>
            </g>
        </g>
    </g>
</svg>