<?xml version="1.0" encoding="UTF-8"?>
<svg width="57px" height="57px" viewBox="0 0 57 57" version="1.1" xmlns="http://www.w3.org/2000/svg" xmlns:xlink="http://www.w3.org/1999/xlink">
    <!-- Generator: Sketch 49.3 (51167) - http://www.bohemiancoding.com/sketch -->
    <title>icon_heart-care</title>
    <desc>Created with Sketch.</desc>
    <defs></defs>
    <g id="Landing" stroke="none" stroke-width="1" fill="none" fill-rule="evenodd" stroke-linecap="square">
        <g id="Social-Impact-Investing-v3" transform="translate(-841.000000, -3349.000000)">
            <g id="Products" transform="translate(0.000000, 2991.000000)">
                <g id="Box-3" transform="translate(730.000000, 336.000000)">
                    <g id="icon_heart-care" transform="translate(112.000000, 23.000000)">
                        <g id="Outline_Icons" transform="translate(1.000000, 1.000000)" stroke="#88BD45" stroke-linejoin="round" stroke-width="3">
                            <g id="Group">
                                <path d="M27.82,21.3483333 C25.8583333,18.2775 19.9664583,19.3752083 19.9664583,24.856875 C20.0902083,29.848125 27.82,33.6270833 27.82,33.6270833 C27.82,33.6270833 35.5497917,29.848125 35.6735417,24.856875 C35.6735417,19.3752083 29.78625,18.2775 27.82,21.3483333 Z" id="Shape"></path>
                                <rect id="Rectangle-path" x="0.145833333" y="34.5208333" width="9.16666667" height="16.0416667"></rect>
                                <path d="M9.3125,47.2670833 C33.375,55.2879167 25.3541667,55.2879167 52.8541667,41.5379167 C50.418125,39.1041667 48.4954167,38.5289583 45.9791667,39.24625 L35.8179167,42.6172917" id="Shape" stroke-linecap="round"></path>
                                <path d="M9.3125,36.8125 L16.1875,36.8125 C21.5797917,36.8125 25.3541667,40.25 26.5,41.3958333 C26.5,41.3958333 29.9375,41.3958333 33.375,41.3958333 C37.0279167,41.3958333 37.0279167,45.9791667 33.375,45.9791667 L20.7708333,45.9791667" id="Shape" stroke-linecap="round"></path>
                                <rect id="Rectangle-path" x="43.6875" y="2.4375" width="9.16666667" height="16.0416667"></rect>
                                <path d="M43.6875,16.1875 L36.8125,16.1875 C31.4202083,16.1875 27.6458333,12.75 26.5,11.6041667 C26.5,11.6041667 23.0625,11.6041667 19.625,11.6041667 C15.9720833,11.6041667 15.9720833,7.02083333 19.625,7.02083333 L32.2291667,7.02083333" id="Shape" stroke-linecap="round"></path>
                                <path d="M43.6875,5.58854167 C19.625,-2.43229167 27.6458333,-2.43229167 0.145833333,11.3177083 C2.57958333,13.7514583 4.50458333,14.3266667 7.02083333,13.609375 L17.1270833,10.2520833" id="Shape" stroke-linecap="round"></path>
                            </g>
                        </g>
                        <g id="invisible_shape">
                            <rect id="Rectangle-path" x="0" y="0" width="55" height="55"></rect>
                        </g>
                    </g>
                </g>
            </g>
        </g>
    </g>
</svg>